<svg id="Warstwa_1" data-name="Warstwa 1" xmlns="http://www.w3.org/2000/svg" viewBox="0 0 545.69215 330" width="200" height="200">
  <defs>
    <style>
      .cls-1 {
        fill: #4895ef;
      }

      .cls-2 {
        fill: #3f37c9;
      }

      .cls-3 {
        fill: #36f;
      }
    </style>
  </defs>
  <g>
    <g>
      <polyline class="cls-1" points="359.218 49.42 494.738 280.58 436.778 280.58 330.348 98.74 359.208 49.43"/>
      <polygon class="cls-2" points="215.338 98.75 108.918 280.58 50.958 280.58 186.478 49.43 215.338 98.75"/>
      <polygon class="cls-2" points="244.108 245.26 223.438 280.57 165.478 280.57 215.168 195.82 244.108 245.26"/>
      <polygon class="cls-1" points="379.738 280.58 321.778 280.58 215.348 98.74 244.208 49.43 244.208 49.42 244.218 49.42 379.738 280.58"/>
    </g>
    <polygon class="cls-3" points="244.171 49.449 215.321 98.759 186.461 49.449 244.171 49.449"/>
    <polygon class="cls-3" points="359.208 49.43 330.348 98.74 301.488 49.43 359.208 49.43"/>
    <line class="cls-3" x1="330.3483" y1="98.73999" x2="330.33829" y2="98.75"/>
  </g>
</svg>
